<svg id="Capa_1" enable-background="new 0 0 512 512" height="512" viewBox="0 0 512 512" width="512" xmlns="http://www.w3.org/2000/svg"><g><path d="m444.668 169.416-47.169 12.639c-92.697 24.838-190.3 24.838-282.997 0l-47.169-12.639c-30.188-8.089-59.833 14.658-59.833 45.911 0 21.513 14.449 40.343 35.229 45.911l9.822 2.632c4.72-22.639 27.79-37.714 51.236-31.432 99.716 26.719 204.709 26.719 304.426 0 23.446-6.282 46.516 8.792 51.236 31.432l9.822-2.632c20.78-5.568 35.229-24.398 35.229-45.911 0-31.253-29.645-54-59.832-45.911z" fill="#dd636e"/><path d="m67.332 169.416 47.169 12.639c92.697 24.838 190.3 24.838 282.997 0l47.169-12.639c3.704-.992 7.4-1.521 11.034-1.626-8.582-16.523-27.9-26.186-47.488-20.937-99.716 26.719-204.709 26.719-304.426 0-19.588-5.249-38.907 4.415-47.488 20.937 3.633.105 7.329.633 11.033 1.626z" fill="#ffcbbe"/><path d="m256 252.47c-8.317 0-16.632-2.63-23.572-7.892l-24.854-18.842c-4.102-3.111-9.565-3.725-14.254-1.598l-30.676 13.9c-15.983 7.241-34.961 2.86-46.154-10.651l-14.372-17.353c-4.165-5.03-11.161-6.519-17.014-3.623l-27.572 13.646c-6.187 3.062-13.685.529-16.748-5.658-3.062-6.188-.529-13.686 5.659-16.748l27.57-13.646c16.29-8.063 35.764-3.917 47.358 10.081l14.372 17.353c4.021 4.854 10.84 6.43 16.582 3.827l30.676-13.9c13.053-5.914 28.255-4.212 39.676 4.447l24.854 18.842c4.987 3.779 11.952 3.779 16.938 0l24.854-18.842c11.419-8.658 26.622-10.361 39.675-4.447l30.676 13.9c5.742 2.603 12.561 1.028 16.583-3.827l14.371-17.353c11.595-13.998 31.069-18.145 47.359-10.08l27.569 13.645c6.188 3.062 8.721 10.561 5.659 16.748-3.062 6.188-10.562 8.721-16.748 5.658l-27.571-13.646c-5.854-2.898-12.85-1.407-17.015 3.622l-14.372 17.352c-11.193 13.514-30.172 17.893-46.154 10.652l-30.676-13.9c-4.69-2.127-10.151-1.512-14.254 1.598l-24.854 18.842c-6.938 5.262-15.256 7.892-23.571 7.893z" fill="#ffe07d"/><path d="m408.213 346.643c-99.717 26.719-204.71 26.719-304.426 0-30.738-8.236-52.112-36.091-52.112-67.913v-6.305c0-27.22 25.819-47.032 52.112-39.987 99.716 26.719 204.709 26.719 304.426 0 26.292-7.045 52.112 12.767 52.112 39.987v6.305c0 31.822-21.374 59.677-52.112 67.913z" fill="#ffcbbe"/><path d="m414.527 231.25c3.665 6.138 5.798 13.35 5.798 21.175v6.305c0 31.822-21.374 59.677-52.112 67.913-96.713 25.914-198.39 26.695-295.403 2.341 8.427 8.251 18.99 14.447 30.977 17.659 99.716 26.719 204.709 26.719 304.426 0 30.738-8.236 52.112-36.091 52.112-67.913v-6.305c0-25.034-21.838-43.802-45.798-41.175z" fill="#eaac9d"/><path d="m460.049 160.345c-11.452-17.848-32.927-26.323-53.777-20.736-83.802 22.454-173.151 25.784-258.394 9.627-4.068-.771-7.994 1.902-8.765 5.973-.771 4.069 1.902 7.994 5.972 8.766 87.443 16.572 179.101 13.159 265.069-9.877 11.771-3.156 23.829.156 32.189 8.177-56.504 15.141-106.741 30.987-185.153 30.987-90.191 0-156.09-23.315-187.535-30.987 8.361-8.02 20.419-11.332 32.189-8.177 2.862.768 5.729 1.512 8.6 2.236 4.019 1.014 8.094-1.422 9.106-5.438s-1.422-8.094-5.438-9.106c-2.798-.705-5.593-1.432-8.384-2.18-20.852-5.589-42.324 2.888-53.776 20.735-27.824 1.5-51.952 24.535-51.952 54.982 0 3.746.383 7.498 1.138 11.149.838 4.057 4.802 6.665 8.863 5.827 4.057-.839 6.665-4.807 5.827-8.863-.549-2.655-.827-5.385-.827-8.113 0-26.326 24.942-45.481 50.391-38.667l4.256 1.14-26.531 13.131c-9.883 4.892-13.945 16.912-9.053 26.797 4.892 9.882 16.912 13.945 26.796 9.053l27.57-13.646c2.723-1.348 5.976-.654 7.913 1.685l8.378 10.115c-24.791-6.096-48.796 7.845-57.274 29.803l-2.776-.744c-4.661-1.249-9.006-3.3-12.915-6.095-3.369-2.409-8.054-1.631-10.463 1.738-2.41 3.369-1.631 8.054 1.738 10.463 5.378 3.846 11.353 6.666 17.758 8.382l3.478.932c-.126 2.105-.091 3.362-.091 9.316 0 35.153 23.715 66.059 57.671 75.157 80.035 21.446 167.97 26.543 254.312 11.814 4.083-.697 6.829-4.571 6.132-8.654-.696-4.083-4.565-6.827-8.654-6.133-81.913 13.975-167.638 9.993-247.908-11.516-27.41-7.345-46.553-32.293-46.553-60.669v-6.306c0-22.293 21.115-38.51 42.671-32.742 98.857 26.49 205.472 27.556 308.308 0 21.531-5.767 42.671 10.435 42.671 32.742v6.306c0 28.376-19.144 53.324-46.554 60.669-6.036 1.617-12.181 3.157-18.266 4.578-4.033.942-6.54 4.976-5.598 9.009.942 4.035 4.975 6.538 9.009 5.599 6.24-1.457 12.544-3.037 18.738-4.697 33.956-9.099 57.67-40.004 57.67-75.157 0-6.591.028-7.345-.091-9.316l3.478-.932c24.016-6.436 40.788-28.294 40.788-53.155 0-30.448-24.125-53.48-51.951-54.982zm-78.993 33.543-10.574 12.768c-1.87 2.258-5.042 2.99-7.711 1.78l-16.803-7.614c11.753-1.929 23.455-4.241 35.088-6.934zm-106.844 13.971-14.273 10.82c-2.319 1.757-5.559 1.757-7.877.001l-14.273-10.821c12.137.398 24.285.398 36.423 0zm-108.179-7.037-16.804 7.615c-2.668 1.211-5.839.478-7.709-1.78l-10.576-12.769c11.632 2.693 23.335 5.004 35.089 6.934zm-84.256-1.131-27.572 13.646c-2.471 1.222-5.477.207-6.699-2.263-1.223-2.472-.208-5.477 2.263-6.7l27.571-13.646c13.156-6.516 28.889-3.164 38.255 8.144l14.372 17.353c6.173 7.452 16.64 9.868 25.454 5.874l30.676-13.9c5.754-2.606 11.08-3.133 16.797-2.585 5.443.659 10.717 2.739 15.253 6.178l24.854 18.843c7.653 5.801 18.344 5.8 25.999-.001l24.855-18.842c5.27-3.996 10.667-5.723 16.743-6.323 5.156-.376 10.417.516 15.305 2.73l30.676 13.9c8.814 3.995 19.282 1.58 25.455-5.874l14.371-17.353c9.367-11.309 25.099-14.655 38.257-8.143l27.569 13.645c2.471 1.224 3.487 4.229 2.264 6.7-1.223 2.472-4.216 3.49-6.699 2.263l-27.569-13.645c-8.984-4.449-19.724-2.162-26.119 5.559l-14.372 17.352c-4.316 5.211-10.066 8.741-16.302 10.37-6.797 1.402-13.216 1.753-20.981-1.765l-30.674-13.899c-7.198-3.266-15.582-2.326-21.882 2.451l-24.855 18.842c-6.078 4.608-12.648 6.362-20.189 6.348-6.536-.229-12.7-2.412-17.893-6.348l-24.853-18.841c-6.309-4.786-14.696-5.714-21.882-2.453l-30.676 13.899c-7.59 3.441-13.947 3.217-20.991 1.764-6.232-1.631-11.978-5.16-16.292-10.367l-14.371-17.352c-6.393-7.719-17.133-10.007-26.118-5.561zm252.876 39.92c-13.821 1.886-27.698 3.272-41.6 4.159l15.904-12.056c1.91-1.448 4.448-1.73 6.628-.744zm-115.706 4.159c-13.903-.887-27.779-2.273-41.6-4.159l19.072-8.642c2.178-.987 4.716-.705 6.625.744zm248.384 10.224-2.776.744c-8.492-21.993-32.522-35.892-57.274-29.803l8.378-10.115c1.938-2.339 5.19-3.032 7.913-1.685l27.569 13.646c9.906 4.903 21.894.857 26.798-9.054 4.891-9.884.83-21.904-9.054-26.796l-26.532-13.131 4.256-1.14c25.443-6.817 50.391 12.336 50.391 38.667 0 18.085-12.201 33.985-29.669 38.667z"/></g></svg>